<svg width="685" height="641" viewBox="0 0 685 641" fill="none" xmlns="http://www.w3.org/2000/svg">
<path fill-rule="evenodd" clip-rule="evenodd" d="M684.5 0H0.5V641H684.5V0ZM240.501 18.5C240.501 18.5 195.001 15.25 168.001 31C141.001 46.7501 126 74 126 74L46.0005 213.5C46.0005 213.5 28.5 240 24.5036 274.5C20.5072 309 46.5005 343.5 46.5005 343.5L261.001 577C261.001 577 286 604.5 310 613C334 621.5 384.5 619 384.5 619H560.5C560.5 619 613 618 641.5 583C670 548 665.5 499.5 665.5 499.5L663.5 247.5C663.5 247.5 664.5 216.5 661.5 196C658.5 175.5 638.5 150 638.5 150L584.5 72C584.5 72 565 40.5 539 29C513 17.5001 481.5 18.5 481.5 18.5H240.501Z" fill="white"/>
</svg>
